PublicSans-Black.ufo
<glyph name="equal" format="2">
  <advance width="1238"/>
  <unicode hex="003D"/>
  <outline>
    <contour>
      <point x="1128" y="1054" type="line"/>
      <point x="110" y="1054" type="line"/>
      <point x="110" y="778" type="line"/>
      <point x="1128" y="778" type="line"/>
    </contour>
    <contour>
      <point x="1128" y="584" type="line"/>
      <point x="110" y="584" type="line"/>
      <point x="110" y="308" type="line"/>
      <point x="1128" y="308" type="line"/>
    </contour>
  </outline>
</glyph>
<glyph name="M" format="2">
  <advance width="1894"/>
  <unicode hex="004D"/>
  <guideline x="461" y="261" angle="255"/>
  <guideline x="461" y="261" angle="105"/>
  <outline>
    <contour>
      <point x="135" y="0" type="line"/>
      <point x="524" y="0" type="line"/>
      <point x="524" y="1048" type="line"/>
      <point x="807" y="0" type="line"/>
      <point x="1087" y="0" type="line"/>
      <point x="1369" y="1048" type="line"/>
      <point x="1369" y="0" type="line"/>
      <point x="1759" y="0" type="line"/>
      <point x="1759" y="1446" type="line"/>
      <point x="1183" y="1446" type="line"/>
      <point x="947" y="564" type="line"/>
      <point x="713" y="1446" type="line"/>
      <point x="135" y="1446" type="line"/>
    </contour>
  </outline>
</glyph>
<glyph name="Z" format="2">
  <advance width="1399"/>
  <unicode hex="005A"/>
  <anchor x="716" y="0" name="bottom"/>
  <anchor x="762" y="1446" name="top"/>
  <outline>
    <contour>
      <point x="90" y="0" type="line"/>
      <point x="1319" y="0" type="line"/>
      <point x="1319" y="324" type="line"/>
      <point x="636" y="324" type="line"/>
      <point x="1331" y="1276" type="line"/>
      <point x="1331" y="1446" type="line"/>
      <point x="153" y="1446" type="line"/>
      <point x="153" y="1126" type="line"/>
      <point x="771" y="1126" type="line"/>
      <point x="90" y="178" type="line"/>
    </contour>
  </outline>
</glyph>
<glyph name="j" format="2">
  <advance width="624"/>
  <unicode hex="006A"/>
  <guideline x="525" y="545" angle="90"/>
  <guideline x="34" y="737" angle="0"/>
  <outline>
    <contour>
      <point x="524" y="56" type="curve" smooth="yes"/>
      <point x="524" y="1034" type="line"/>
      <point x="135" y="1034" type="line"/>
      <point x="135" y="56" type="line"/>
      <point x="135" y="14"/>
      <point x="114" y="-12"/>
      <point x="41" y="-28" type="curve"/>
      <point x="-20" y="-38" type="line"/>
      <point x="-18" y="-298" type="line"/>
      <point x="-18" y="-298"/>
      <point x="13" y="-332"/>
      <point x="117" y="-332" type="curve"/>
      <point x="393" y="-332"/>
      <point x="524" y="-200"/>
    </contour>
    <contour>
      <point x="524" y="1446" type="line"/>
      <point x="135" y="1446" type="line"/>
      <point x="135" y="1118" type="line"/>
      <point x="524" y="1118" type="line"/>
    </contour>
  </outline>
</glyph>
<glyph name="brokenbar" format="2">
  <advance width="546"/>
  <unicode hex="00A6"/>
  <outline>
    <contour>
      <point x="411" y="824" type="line"/>
      <point x="411" y="1652" type="line"/>
      <point x="135" y="1652" type="line"/>
      <point x="135" y="824" type="line"/>
    </contour>
    <contour>
      <point x="411" y="-322" type="line"/>
      <point x="411" y="506" type="line"/>
      <point x="135" y="506" type="line"/>
      <point x="135" y="-322" type="line"/>
    </contour>
  </outline>
</glyph>
<glyph name="guillemetleft" format="2">
  <advance width="1080"/>
  <unicode hex="00AB"/>
  <outline>
    <contour>
      <point x="812" y="502" type="line"/>
      <point x="940" y="902" type="line"/>
      <point x="738" y="902" type="line"/>
      <point x="524" y="502" type="line"/>
      <point x="740" y="118" type="line"/>
      <point x="940" y="118" type="line"/>
    </contour>
    <contour>
      <point x="406" y="502" type="line"/>
      <point x="534" y="902" type="line"/>
      <point x="332" y="902" type="line"/>
      <point x="120" y="502" type="line"/>
      <point x="334" y="118" type="line"/>
      <point x="534" y="118" type="line"/>
    </contour>
  </outline>
</glyph>
<glyph name="AE" format="2">
  <advance width="2200"/>
  <unicode hex="00C6"/>
  <anchor x="1382" y="1446" name="top"/>
  <outline>
    <contour>
      <point x="2110" y="320" type="line"/>
      <point x="1410" y="320" type="line"/>
      <point x="1410" y="570" type="line"/>
      <point x="1980" y="570" type="line"/>
      <point x="1980" y="884" type="line"/>
      <point x="1410" y="884" type="line"/>
      <point x="1410" y="1128" type="line"/>
      <point x="2090" y="1128" type="line"/>
      <point x="2092" y="1446" type="line"/>
      <point x="750" y="1446" type="line"/>
      <point x="0" y="0" type="line"/>
      <point x="388" y="0" type="line"/>
      <point x="526" y="280" type="line"/>
      <point x="966" y="280" type="line"/>
      <point x="966" y="0" type="line"/>
      <point x="2110" y="0" type="line"/>
    </contour>
    <contour>
      <point x="966" y="612" type="line"/>
      <point x="668" y="612" type="line"/>
      <point x="966" y="1202" type="line"/>
    </contour>
  </outline>
</glyph>
<glyph name="divide" format="2">
  <advance width="1238"/>
  <unicode hex="00F7"/>
  <outline>
    <contour>
      <point x="806" y="474" type="line"/>
      <point x="436" y="474" type="line"/>
      <point x="436" y="118" type="line"/>
      <point x="806" y="118" type="line"/>
    </contour>
    <contour>
      <point x="1128" y="866" type="line"/>
      <point x="110" y="866" type="line"/>
      <point x="110" y="590" type="line"/>
      <point x="1128" y="590" type="line"/>
    </contour>
    <contour>
      <point x="806" y="1338" type="line"/>
      <point x="436" y="1338" type="line"/>
      <point x="436" y="982" type="line"/>
      <point x="806" y="982" type="line"/>
    </contour>
  </outline>
</glyph>
<glyph name="Hbar" format="2">
  <advance width="1708"/>
  <unicode hex="0126"/>
  <anchor x="864" y="0" name="bottom"/>
  <anchor x="867" y="1446" name="top"/>
  <outline>
    <contour>
      <point x="1668" y="1284" type="line"/>
      <point x="40" y="1284" type="line"/>
      <point x="40" y="1082" type="line"/>
      <point x="1668" y="1082" type="line"/>
    </contour>
    <component base="H" xOffset="90"/>
  </outline>
</glyph>
<glyph name="Lslash" format="2">
  <advance width="1196"/>
  <unicode hex="0141"/>
  <anchor x="653" y="0" name="bottom"/>
  <anchor x="771" y="1446" name="caron"/>
  <anchor x="361" y="1446" name="top"/>
  <outline>
    <contour>
      <point x="874" y="1088" type="line"/>
      <point x="0" y="856" type="line"/>
      <point x="0" y="538" type="line"/>
      <point x="874" y="786" type="line"/>
    </contour>
    <component base="L" xOffset="40"/>
  </outline>
</glyph>
<glyph name="Tbar" format="2">
  <advance width="1274"/>
  <unicode hex="0166"/>
  <anchor x="654" y="0" name="bottom"/>
  <anchor x="654" y="1446" name="top"/>
  <outline>
    <contour>
      <point x="1062" y="822" type="line"/>
      <point x="208" y="822" type="line"/>
      <point x="208" y="548" type="line"/>
      <point x="1062" y="548" type="line"/>
    </contour>
    <component base="T"/>
  </outline>
</glyph>
<glyph name="acutecomb" format="2">
  <unicode hex="0301"/>
  <anchor x="145" y="1034" name="_top"/>
  <outline>
    <contour>
      <point x="216" y="1446" type="line"/>
      <point x="10" y="1155" type="line"/>
      <point x="282" y="1155" type="line"/>
      <point x="599" y="1446" type="line"/>
    </contour>
  </outline>
</glyph>
<glyph name="ogonekcomb" format="2">
  <unicode hex="0328"/>
  <anchor x="446" y="20" name="_ogonek"/>
  <outline>
    <contour>
      <point x="42" y="-170" type="curve" smooth="yes"/>
      <point x="42" y="-286"/>
      <point x="136" y="-340"/>
      <point x="278" y="-340" type="curve" smooth="yes"/>
      <point x="378" y="-340"/>
      <point x="470" y="-312"/>
      <point x="510" y="-286" type="curve"/>
      <point x="510" y="-122" type="line"/>
      <point x="462" y="-150"/>
      <point x="422" y="-172"/>
      <point x="364" y="-172" type="curve" smooth="yes"/>
      <point x="328" y="-172"/>
      <point x="310" y="-154"/>
      <point x="310" y="-116" type="curve" smooth="yes"/>
      <point x="310" y="-72"/>
      <point x="344" y="-36"/>
      <point x="490" y="12" type="curve"/>
      <point x="224" y="12" type="line"/>
      <point x="72" y="-42"/>
      <point x="42" y="-104"/>
    </contour>
  </outline>
</glyph>
<glyph name="franc" format="2">
  <advance width="1278"/>
  <unicode hex="20A3"/>
  <outline>
    <contour>
      <point x="822" y="410" type="line"/>
      <point x="-60" y="410" type="line"/>
      <point x="-60" y="212" type="line"/>
      <point x="822" y="212" type="line"/>
    </contour>
    <contour>
      <point x="108" y="1446" type="line"/>
      <point x="108" y="0" type="line"/>
      <point x="550" y="0" type="line"/>
      <point x="550" y="558" type="line"/>
      <point x="980" y="558" type="line"/>
      <point x="980" y="868" type="line"/>
      <point x="550" y="868" type="line"/>
      <point x="550" y="1128" type="line"/>
      <point x="1216" y="1128" type="line"/>
      <point x="1218" y="1446" type="line"/>
    </contour>
  </outline>
</glyph>
<glyph name="lessequal" format="2">
  <advance width="1238"/>
  <unicode hex="2264"/>
  <outline>
    <contour>
      <point x="1104" y="678" type="line"/>
      <point x="524" y="890" type="line"/>
      <point x="1104" y="1108" type="line"/>
      <point x="1104" y="1430" type="line"/>
      <point x="112" y="1048" type="line"/>
      <point x="112" y="738" type="line"/>
      <point x="1104" y="354" type="line"/>
    </contour>
    <contour>
      <point x="1128" y="290" type="line"/>
      <point x="110" y="290" type="line"/>
      <point x="110" y="16" type="line"/>
      <point x="1128" y="16" type="line"/>
    </contour>
  </outline>
</glyph>
<glyph name="cent.tf" format="2">
  <advance width="1400"/>
  <anchor x="742" y="222" name="bottom"/>
  <anchor x="741" y="1256" name="top"/>
  <outline>
    <contour>
      <point x="877" y="0" type="line"/>
      <point x="877" y="382" type="line"/>
      <point x="633" y="382" type="line"/>
      <point x="633" y="0" type="line"/>
    </contour>
    <contour>
      <point x="877" y="1064" type="line"/>
      <point x="877" y="1446" type="line"/>
      <point x="633" y="1446" type="line"/>
      <point x="633" y="1064" type="line"/>
    </contour>
    <component base="c" xOffset="173" yOffset="222"/>
  </outline>
</glyph>
<glyph name="euro.tf" format="2">
  <advance width="1400"/>
  <outline>
    <contour>
      <point x="854" y="-20" type="curve" smooth="yes"/>
      <point x="1068" y="-20"/>
      <point x="1254" y="94"/>
      <point x="1362" y="238" type="curve"/>
      <point x="1156" y="452" type="line"/>
      <point x="1110" y="380"/>
      <point x="1006" y="300"/>
      <point x="906" y="300" type="curve" smooth="yes"/>
      <point x="784" y="300"/>
      <point x="668" y="414"/>
      <point x="668" y="736" type="curve" smooth="yes"/>
      <point x="668" y="1054"/>
      <point x="762" y="1166"/>
      <point x="894" y="1166" type="curve" smooth="yes"/>
      <point x="992" y="1166"/>
      <point x="1048" y="1098"/>
      <point x="1102" y="1032" type="curve"/>
      <point x="1368" y="1220" type="line"/>
      <point x="1260" y="1370"/>
      <point x="1076" y="1466"/>
      <point x="858" y="1466" type="curve" smooth="yes"/>
      <point x="488" y="1466"/>
      <point x="220" y="1182"/>
      <point x="220" y="742" type="curve" smooth="yes"/>
      <point x="220" y="302"/>
      <point x="488" y="-20"/>
    </contour>
    <contour>
      <point x="970" y="986" type="line"/>
      <point x="70" y="986" type="line"/>
      <point x="70" y="790" type="line"/>
      <point x="970" y="790" type="line"/>
    </contour>
    <contour>
      <point x="970" y="656" type="line"/>
      <point x="70" y="656" type="line"/>
      <point x="70" y="458" type="line"/>
      <point x="970" y="458" type="line"/>
    </contour>
  </outline>
</glyph>
<glyph name="franc.tf" format="2">
  <advance width="1400"/>
  <outline>
    <contour>
      <point x="942" y="410" type="line"/>
      <point x="60" y="410" type="line"/>
      <point x="60" y="212" type="line"/>
      <point x="942" y="212" type="line"/>
    </contour>
    <contour>
      <point x="228" y="1446" type="line"/>
      <point x="228" y="0" type="line"/>
      <point x="670" y="0" type="line"/>
      <point x="670" y="558" type="line"/>
      <point x="1100" y="558" type="line"/>
      <point x="1100" y="868" type="line"/>
      <point x="670" y="868" type="line"/>
      <point x="670" y="1128" type="line"/>
      <point x="1336" y="1128" type="line"/>
      <point x="1338" y="1446" type="line"/>
    </contour>
  </outline>
</glyph>
<glyph name="liraTurkish.tf" format="2">
  <advance width="1400"/>
  <outline>
    <contour>
      <point x="596" y="0" type="line" smooth="yes"/>
      <point x="1102" y="0"/>
      <point x="1308" y="266"/>
      <point x="1412" y="542" type="curve"/>
      <point x="1074" y="612" type="line"/>
      <point x="1008" y="434"/>
      <point x="894" y="320"/>
      <point x="770" y="320" type="curve" smooth="yes"/>
      <point x="724" y="320" type="line"/>
      <point x="724" y="1446" type="line"/>
      <point x="280" y="1446" type="line"/>
      <point x="280" y="0" type="line"/>
    </contour>
    <contour>
      <point x="940" y="1202" type="line"/>
      <point x="10" y="864" type="line"/>
      <point x="78" y="678" type="line"/>
      <point x="1008" y="1018" type="line"/>
    </contour>
    <contour>
      <point x="978" y="892" type="line"/>
      <point x="50" y="554" type="line"/>
      <point x="118" y="368" type="line"/>
      <point x="1044" y="706" type="line"/>
    </contour>
  </outline>
</glyph>
<glyph name="rupeeIndian.tf" format="2">
  <advance width="1400"/>
  <outline>
    <contour>
      <point x="70" y="870" type="line"/>
      <point x="70" y="598" type="line"/>
      <point x="500" y="598" type="line"/>
      <point x="708" y="0" type="line"/>
      <point x="1188" y="0" type="line"/>
      <point x="916" y="632" type="line" smooth="yes"/>
      <point x="909" y="648"/>
      <point x="910" y="664"/>
      <point x="922" y="668" type="curve" smooth="yes"/>
      <point x="1075" y="719"/>
      <point x="1178" y="866"/>
      <point x="1178" y="1044" type="curve" smooth="yes"/>
      <point x="1178" y="1296"/>
      <point x="958" y="1446"/>
      <point x="584" y="1446" type="curve" smooth="yes"/>
      <point x="70" y="1446" type="line"/>
      <point x="70" y="1256" type="line"/>
      <point x="516" y="1256" type="line" smooth="yes"/>
      <point x="644" y="1256"/>
      <point x="720" y="1198"/>
      <point x="720" y="1058" type="curve" smooth="yes"/>
      <point x="720" y="932"/>
      <point x="666" y="870"/>
      <point x="526" y="870" type="curve" smooth="yes"/>
    </contour>
    <contour>
      <point x="1342" y="1446" type="line"/>
      <point x="70" y="1446" type="line"/>
      <point x="70" y="1270" type="line"/>
      <point x="1342" y="1270" type="line"/>
    </contour>
    <contour>
      <point x="1342" y="1152" type="line"/>
      <point x="70" y="1152" type="line"/>
      <point x="70" y="976" type="line"/>
      <point x="1342" y="976" type="line"/>
    </contour>
  </outline>
</glyph>
